<svg width="1280" height="86" viewBox="0 0 1280 86" fill="none" xmlns="http://www.w3.org/2000/svg">
<path d="M-22 38.9958C-22 38.6105 -4.47797 38.4119 49.6497 41.4256C86.3224 43.4674 141.414 50.4666 183.369 53.4181C225.324 56.3695 252.405 56.0624 276.234 54.7527C300.062 53.4429 319.818 51.1397 354.545 49.4595C389.271 47.7793 438.369 46.7918 486.071 46.0964C533.774 45.4011 578.594 45.0277 623.531 42.2252C668.468 39.4226 712.165 34.2021 747.641 31.5128C783.116 28.8235 809.047 28.8235 841.878 31.5466C874.71 34.2697 913.656 39.716 983.116 42.7038C1052.58 45.6916 1151.37 46.0559 1204.17 45.8883C1268.67 42.9414 1281.92 38.7643 1293.04 36.54C1295.69 36.0448 1298.01 35.5571 1302.82 34.4434" stroke="#FFFDF8" stroke-width="59" stroke-linecap="round" stroke-linejoin="round"/>
</svg>
